# xmcd CD database file
#
# Track frame offsets:
#	151
#	14890
#	28877
#	44362
#	56319
#	69482
#	84891
#	98576
#	111589
#	128574
#
# Disc length: 1928 seconds
#
# Revision: 1
# Processed by: cddbd v1.5.1PL0 Copyright (c) Steve Scherf et al.
# Submitted via: CDex 1.50beta10
#
DISCID=8007860a
DTITLE=King Clave y 7 Grandes Idolos de La Balada Romántica - 100 años de Musica (DIMSA)
DYEAR=2004
DGENRE=Romántico
TTITLE0=King Clave - Los Hombre No Deben de Llorar
TTITLE1=Enrique Guzmán - El Amor Esta  en El Aire
TTITLE2=Javier Santos - Zapatos Rotos
TTITLE3=Benny Ibarra - Cenizas
TTITLE4=King Clave - Por Culpa Tuya
TTITLE5=Gualberto Castro - Pensando en Ti
TTITLE6=Palito Ortega - Yo Tengo Fe
TTITLE7=Luis "Vivi" Hernández - Sencillamente Nunca
TTITLE8=Jerardo - Veneno
TTITLE9=King Clave - Usted Me Dejo Llorando
EXTD=YEAR: 2004
EXTT0=
EXTT1=
EXTT2=
EXTT3=
EXTT4=
EXTT5=
EXTT6=
EXTT7=
EXTT8=
EXTT9=
PLAYORDER=
